<?xml version="1.0" encoding="iso-8859-1"?>
<!-- Generator: Adobe Illustrator 19.0.0, SVG Export Plug-In . SVG Version: 6.00 Build 0)  -->
<svg version="1.1" id="Capa_1" xmlns="http://www.w3.org/2000/svg" xmlns:xlink="http://www.w3.org/1999/xlink" x="0px" y="0px"
	 viewBox="0 0 512 512" style="enable-background:new 0 0 512 512;" xml:space="preserve">
<circle style="fill:#965A50;" cx="66.06" cy="218.839" r="66.06"/>
<circle style="fill:#D4AF91;" cx="66.06" cy="218.839" r="41.29"/>
<circle style="fill:#965A50;" cx="445.94" cy="218.839" r="66.06"/>
<circle style="fill:#EBC9A0;" cx="445.94" cy="218.839" r="41.29"/>
<path style="fill:#AF6E5A;" d="M442.589,257.919c-8.366-14.435-13.169-30.655-13.169-47.34v-0.001
	c0-72.373-44.364-134.33-107.355-160.318V20.644l-41.29,16.516l-8.258-33.032c-21.781,7.261-40.361,22.498-54.356,37.298
	c-77.557,17.283-135.58,86.39-135.58,169.154c0,16.685-4.803,32.904-13.169,47.34c-12.72,21.948-19.863,46.482-19.863,72.402
	c0,93.496,92.431,169.29,206.452,169.29s206.452-75.794,206.452-169.29C462.452,304.402,455.308,279.867,442.589,257.919z"/>
<path style="fill:#965A50;" d="M140.387,359.913c0-30.24,7.143-58.864,19.863-84.469c8.367-16.841,13.169-35.764,13.169-55.23
	c0-84.035,43.969-155.956,106.493-186.502l-7.396-29.584c-21.781,7.261-40.361,22.498-54.357,37.298
	C140.604,58.709,82.581,127.816,82.581,210.58c0,16.685-4.802,32.904-13.169,47.34c-12.72,21.948-19.863,46.482-19.863,72.402
	c0,75.465,60.232,139.37,143.415,161.223C160.282,456.604,140.387,410.489,140.387,359.913z"/>
<path style="fill:#FAEBC8;" d="M256,466.58c68.412,0,123.871-44.367,123.871-99.097c0-11.354-2.414-22.245-6.835-32.386
	c-6.41-14.707-4.228-31.587,6.07-43.889c13.134-15.691,19.908-36.877,16.333-59.635c-4.91-31.259-30.182-56.486-61.448-61.353
	c-23.892-3.719-46.037,3.968-61.903,18.439c-4.51,4.113-10.3,6.17-16.087,6.17c-5.79,0-11.581-2.056-16.091-6.17
	c-15.866-14.471-38.011-22.158-61.903-18.439c-31.266,4.866-56.537,30.094-61.448,61.353c-3.575,22.757,3.199,43.943,16.333,59.635
	c10.298,12.303,12.48,29.182,6.07,43.889c-4.42,10.142-6.835,21.033-6.835,32.386C132.129,422.212,187.588,466.58,256,466.58z"/>
<path style="fill:#F5DCB4;" d="M132.129,367.482c0,18.522,6.468,35.795,17.524,50.625c-5.938-18.411-9.266-37.916-9.266-58.195
	c0-30.24,7.143-58.864,19.863-84.469c8.367-16.841,13.169-35.764,13.169-55.23c0-17.307,1.96-34.056,5.468-50.08
	c-0.295,0.042-0.583,0.04-0.879,0.086c-31.266,4.866-56.536,30.094-61.448,61.352c-3.575,22.758,3.2,43.944,16.333,59.635
	c10.298,12.302,12.481,29.181,6.071,43.889C134.543,345.238,132.129,356.129,132.129,367.482z"/>
<g>
	<path style="fill:#5D5360;" d="M239.476,326.193c-1.242,0-2.5-0.278-3.685-0.871l-16.516-8.258c-4.081-2.04-5.734-7-3.694-11.081
		c2.048-4.081,7-5.734,11.081-3.694l16.516,8.258c4.081,2.04,5.734,7,3.694,11.081C245.419,324.523,242.508,326.193,239.476,326.193
		z"/>
	<path style="fill:#5D5360;" d="M272.524,326.193c-3.032,0-5.944-1.669-7.395-4.565c-2.04-4.081-0.387-9.04,3.694-11.081
		l16.516-8.258c4.073-2.04,9.032-0.387,11.081,3.694c2.04,4.081,0.387,9.04-3.694,11.081l-16.516,8.258
		C275.024,325.914,273.766,326.193,272.524,326.193z"/>
</g>
<path style="fill:#4B3F4E;" d="M182.319,359.225c-5.001,0-8.941,4.431-8.248,9.384c5.126,36.617,39.853,64.938,81.929,64.938
	c42.077,0,76.803-28.321,81.929-64.938c0.693-4.953-3.247-9.384-8.248-9.384L182.319,359.225L182.319,359.225z"/>
<path style="fill:#E6646E;" d="M208.417,419.908c13.457,8.563,29.849,13.639,47.583,13.639s34.126-5.076,47.583-13.639
	c-5.966-20.667-25.063-35.909-47.583-35.909S214.383,399.241,208.417,419.908z"/>
<path style="fill:#FF8087;" d="M256,433.547c2.792,0,5.538-0.169,8.258-0.415v-16.101c0-4.56-3.694-8.258-8.258-8.258
	s-8.258,3.698-8.258,8.258v16.101C250.462,433.378,253.208,433.547,256,433.547z"/>
<path style="fill:#AF6E5A;" d="M66.065,259.44C41.711,314.559,17.456,402.228,3.027,488.765
	c-1.67,10.016,6.164,19.105,16.318,19.105h65.518c8.18,0,15.077-5.997,16.334-14.08c16.799-108.018,44.006-182.049,44.006-182.049
	L66.065,259.44z"/>
<path style="fill:#965A50;" d="M38.839,507.87c13.612-77.595,41.013-169.228,63.308-224.585l-36.083-23.846
	c-24.353,55.12-48.608,142.789-63.037,229.326c-1.67,10.016,6.164,19.105,16.318,19.105H38.839z"/>
<path style="fill:#F5DCB4;" d="M79.227,144.989c11.768,2.265,19.865,13.257,19.865,25.24v33.019l26.536-26.536
	c23.229-23.229,60.346-27.609,86.874-8.234c33.435,24.419,36.092,72.126,7.971,100.247l-37.025,37.025
	c-24.599,24.599-64.853,24.599-89.452,0L83.41,295.164c-21.682-21.682-33.862-51.088-33.862-81.751v-44.127
	C49.542,154.002,63.396,141.942,79.227,144.989z"/>
<path style="fill:#EBC9A0;" d="M209.002,166.172c-26.216-16.599-61.143-11.691-83.375,10.54l-26.535,26.536v-33.019
	c0-11.984-8.098-22.975-19.865-25.24c-15.832-3.047-29.684,9.013-29.678,24.297v44.127c0,30.662,12.18,60.069,33.863,81.751
	l10.585,10.586C84.907,272.139,132.027,167.495,209.002,166.172z"/>
<path style="fill:#AF6E5A;" d="M446.195,259.44c24.354,55.12,48.608,142.789,63.038,229.326c1.67,10.016-6.164,19.105-16.318,19.105
	h-65.518c-8.18,0-15.077-5.997-16.334-14.08c-16.799-108.018-44.006-182.049-44.006-182.049L446.195,259.44z"/>
<path style="fill:#F5DCB4;" d="M433.032,144.989c-11.768,2.265-19.865,13.257-19.865,25.24v33.019l-26.536-26.536
	c-23.229-23.229-60.346-27.609-86.874-8.234c-33.435,24.419-36.092,72.126-7.971,100.247l37.025,37.025
	c24.599,24.599,64.853,24.599,89.452,0l10.586-10.586c21.682-21.682,33.862-51.088,33.862-81.751v-44.127
	C462.717,154.002,448.863,141.942,433.032,144.989z"/>
<g>
</g>
<g>
</g>
<g>
</g>
<g>
</g>
<g>
</g>
<g>
</g>
<g>
</g>
<g>
</g>
<g>
</g>
<g>
</g>
<g>
</g>
<g>
</g>
<g>
</g>
<g>
</g>
<g>
</g>
</svg>
